<svg xmlns="http://www.w3.org/2000/svg" width="982" height="982" fill="none"><rect width="982" height="982" fill="url(#a)" rx="48"/><path fill="#fff" d="M634.6 318.5c15.4-5 33.3-3.9 43.3-1.6 38.6 6.2 70.6 33.6 83.7 75 6.5 20.6 8.7 94.1 8.7 187.8 0 58.6-.3 68.6-3.2 74.6-4 8.6-11.8 12.7-23.8 12.7-10.6 0-23-3-23-13.6v-86.7c0-47.7-.9-128.7-2-136-4.3-30.5-17-50.6-38.8-61.7-7-3.5-10.8-5.3-15.6-6.2-22.4-1.5-32.3 3.8-45.2 16-25.8 24.6-33.3 48.8-82.5 169.1a4892.5 4892.5 0 0 1-34.8 83.5 81.4 81.4 0 0 1-4.9 9.9c-1.1 2.4-3 4.7-5.4 7A24 24 0 0 1 461 651c-6.3-4.2-9.6-10.9-32.6-64.4l-25.6-59.7 5.4-7.9a151 151 0 0 1 17.4-18.8c6.6-6.1 12.6-10.3 13.4-9.4 1.7 1.8 18 38.7 35.8 80.2l7.6-18.9c37.3-91.5 44.2-107.8 55.7-131.7 6.9-14.3 17-32.8 22.4-41.1 21.6-32.9 45-51.4 74-60.8Zm158.8 28c25.1-5.5 52.3-2.6 75 8.1a110 110 0 0 1 47.1 47.9c16.6 32 19.5 55 19.5 159.5 0 83.2-.4 87.3-10.2 94.2-2.9 2-8.7 3.2-15.4 3.2-11.5 0-24.4-3.2-24.4-13.6v-85.7c-.1-92.8-1.3-107.2-10.7-127.6a80.4 80.4 0 0 0-33.3-37 56.3 56.3 0 0 0-31-7.5c-15 0-17.3 1.7-26.5 6-1.5-10-6.5-24.5-12.5-37 2.8-3.9 18.6-9.7 22.4-10.6ZM172 342.2c42-8.4 93.8 4.8 116 29.5 11 13.2-9.5 39.7-28 28.7-10.7-6.4-14.5-8.8-39-14-44.8-9.5-94.1 15.3-115.6 56.3A121.2 121.2 0 0 0 94 524.4a110 110 0 0 0 179.2 61.9c14.4-12 26.8-28 49-63a673 673 0 0 1 34.6-50.3l13.8-17-18.8-43.2A2513 2513 0 0 1 333 365c-3.6-10 6-17.5 14.5-20.5 11-3 18-2.2 24 1.7 5.8 3.9 6.7 5.6 32.6 64.5 10.3 23.3 20.4 46 22.6 50.6l4 8.2-6 3c-16.4 8.5-32 28.1-63.2 79a547.4 547.4 0 0 1-31.4 46.4c-22.5 27.2-53 47-86.1 55.8a206.3 206.3 0 0 1-82 .9c-30.8-8-60.5-25.7-80.3-48a146.8 146.8 0 0 1-30.5-53.8c-7-20.1-7.2-38.3-7.2-52.4 0-11.9.6-33.9 4.7-47 18.7-59.6 62.4-99 123.3-111.1Z"/><defs><linearGradient id="a" x1="491" x2="491" y1="0" y2="982" gradientUnits="userSpaceOnUse"><stop stop-color="#A200FF"/><stop offset="1" stop-color="#FF9500"/></linearGradient></defs></svg>