<?xml version="1.0" encoding="UTF-8"?><svg id="Layer_2" xmlns="http://www.w3.org/2000/svg" viewBox="0 0 350.0407 405.535"><g id="Components"><g id="_79009d69-27ad-4526-bb00-b98f259824f6_5"><rect x="21.8374" y="357.5117" width="305.7718" height="17.072" rx=".8202" ry=".8202" style="fill:#fff;"/><rect x="43.6894" y="388.463" width="262.0808" height="17.072" rx=".8202" ry=".8202" style="fill:#fff;"/><path d="M348.5437,326.5604h-26.6979c-.7091,0-1.1294-.7881-.7354-1.3921,18.267-27.5515,28.9304-60.5925,28.9304-96.0496,0-62.6277-33.1983-117.6387-82.9303-148.3421-.5778-.3546-1.3264.0263-1.3789.696l-1.2344,15.8245c-.0263.3152.1181.6172.3808.8009,41.8657,28.5627,69.404,76.6401,69.404,131.0207,0,36.5604-12.4362,70.2577-33.3166,97.0871-.1707.2231-.4465.3546-.7223.3546h-28.5495c-.6303,0-1.0637-.6303-.8536-1.2084,8.4178-22.4432,17.177-45.4638,20.3157-52.9494.2101-.5252-.1051-1.1029-.6566-1.2081-16.3366-3.3225-33.6317-10.9784-49.6926-19.961-9.5603-5.3449-18.7003-11.1624-26.9343-16.7962-12.7777-8.746-23.4016-17.0851-30.1779-22.64-3.7821-3.099-6.3691-5.3318-7.4591-6.2773-.3283-.2889-.8273-.302-1.1688,0-1.0506.9064-3.5194,3.0205-7.1308,5.9358-6.8419,5.5549-17.7679,14.0646-30.9528,23.0078-8.2996,5.6338-17.5053,11.4513-27.1312,16.8225-15.7719,8.7723-32.6994,16.3365-48.7338,19.8953-.5516.1183-.8536.6829-.6435,1.1949,3.1255,7.4725,11.8848,30.5066,20.3157,52.9757.2232.5781-.2102,1.2084-.8405,1.2084h-28.5627c-.2889,0-.5515-.1315-.7223-.3546-20.8803-26.8295-33.3166-60.5268-33.3166-97.0871,0-54.3806,27.5383-102.458,69.404-131.0072.2627-.184.4202-.486.394-.8012l-1.2475-15.8376c-.0526-.6698-.8011-1.0506-1.379-.696C34.7874,111.48,1.589,166.491,1.589,229.1187c0,35.4571,10.6503,68.4981,28.9304,96.0496.394.604-.0262,1.3921-.7354,1.3921H.893c-.499,0-.893.4069-.893.8929v15.2858c0,.486.394.8932.893.8932h347.6507c.499,0,.9061-.4072.9061-.8932v-15.2858c0-.486-.4071-.8929-.9061-.8929ZM190.3624,270.6885l-27.8273,59.1112c-.2364.4801-.9981.3202-.9981-.1969v-42.6218c0-.2709-.2364-.4928-.5252-.4928h-11.8585c-.3808,0-.6303-.3572-.4859-.6771l27.8404-59.1112c.2232-.4804.9981-.3202.9981.1969v42.6218c0,.2709.2232.4925.5121.4925h11.8716c.3808,0,.6303.3572.4727.6774Z" style="fill:#fff;"/><path d="M290.2926,142.5768c-2.8775,36.5894-5.7551,73.1663-8.6326,109.7557-.0585.7439-.7062,1.3006-1.4505,1.2475-4.1911-.299-8.3813-.5866-12.5615-.8539-.2267-.0145-.4478-.067-.6564-.1569-11.2279-4.8384-22.4227-10.9823-32.8055-17.4226-25.227-15.6404-45.7134-32.949-50.4935-37.0724-.6435-.5646-1.0112-.8801-1.0506-.9192l-5.6422-5.0227c-.7376-.6566-1.849-.6605-2.5911-.009l-5.6869,4.9922c-.0394.0263-.302.2626-.7879.6829-3.4013,2.9153-17.5185,14.787-36.3239,27.6041-4.7539,3.2436-9.8098,6.553-15.0758,9.7835-10.449,6.428-21.7101,12.5982-33.0043,17.4501-.2074.0891-.4271.1414-.6523.1563-3.8541.2551-7.7178.5205-11.5732.7963-.6755.0483-1.2619-.4565-1.315-1.1317-2.887-36.7103-5.7741-73.4081-8.6611-110.1184-.0591-.7514.5056-1.4101,1.2572-1.4664,34.7279-2.6009,69.4079-4.1248,104.2113-4.5841.6309-.0083,1.1371-.5205,1.1371-1.1514v-8.7845c0-.6438-.5345-1.1653-1.1783-1.1591-22.1967.2156-42.4416,1.1531-64.5435,2.9417-.7168.058-1.3589-.4935-1.4153-1.2103-.9634-12.2466-1.9262-22.5295-2.8768-34.7099-.4596-5.7518-.9061-11.517-1.3657-17.2688-.4739-6.0417-.9478-12.0939-1.4214-18.1377-.085-1.0845.7428-2.0323,1.828-2.1083,23.9109-1.6751,45.9016-2.6742,69.8826-2.9969.6007-.0081,1.0903-.4963,1.0903-1.097V1.3271c0-.733.5942-1.3271,1.3272-1.3271h13.1044c.733,0,1.3271.5942,1.3272,1.3271v5.236c0,.9614.702,1.8036,1.6541,1.9376,18.4063,2.5907,33.2057-7.8628,52.2485-3.1047,1.1293.2822,1.2732,1.8799.2053,2.3432-3.8183,1.6565-6.6651,4.3648-11.0914,9.3079-.3812.4257-.3764,1.0908.0066,1.5148,5.3651,5.9402,8.4097,9.9655,13.6816,20.1467.3668.7083-.2837,1.5367-1.0486,1.3108-20.0844-5.9294-35.3187,5.5192-54.5376,2.547-.5856-.0906-1.1184.3464-1.1184.9389v7.1669c0,.564.4599,1.0224,1.0238,1.0299,24.0192.3218,46.0289,1.3212,69.9621,2.9978,1.085.076,1.9131,1.0239,1.8281,2.1083-.4738,6.0438-.9488,12.096-1.4345,18.1377-.4465,5.7518-.893,11.517-1.3527,17.2688-.9653,12.2056-1.9306,22.5063-2.8841,34.7861-.0524.6752-.6569,1.1966-1.332,1.1437-22.1439-1.735-42.4106-2.7583-64.6332-2.9526-.6436-.0056-1.1777.5161-1.1777,1.1597v8.7851c0,.6309.5062,1.1431,1.1371,1.1514,34.7241.4583,69.3376,1.9762,103.9863,4.5663.8828.066,1.546.8397,1.4766,1.7223Z" style="fill:#fff;"/></g></g></svg>